<?xml version="1.0" encoding="UTF-8" standalone="no"?>
<svg width="276px" height="276px" viewBox="0 0 276 276" version="1.1" xmlns="http://www.w3.org/2000/svg" xmlns:xlink="http://www.w3.org/1999/xlink">
    <!-- Generator: Sketch 3.6.1 (26313) - http://www.bohemiancoding.com/sketch -->
    <title>click-for-details</title>
    <desc>Created with Sketch.</desc>
    <defs></defs>
    <g id="Page-1" stroke="none" stroke-width="1" fill="none" fill-rule="evenodd">
        <g id="click-for-details">
            <rect id="Rectangle-1-Copy" fill="#F3B9BA" x="0" y="0" width="276" height="276"></rect>
            <g id="Page-1" transform="translate(38.000000, 36.000000)">
                <rect id="Rectangle-3" fill="#F39B4D" x="7" y="20" width="184" height="178"></rect>
                <g id="Group-22">
                    <path d="M105.571179,12.9746835 C105.571179,12.9746835 104.70655,3.97890295 95.8873362,3.97890295 C86.4628821,3.97890295 86.0305677,12.9746835 86.0305677,12.9746835 L105.571179,12.9746835 Z M191.255895,198.080169 L197.740611,204.567511 L191.255895,198.080169 Z M0.43231441,204.394515 L7.00349345,197.820675 L0.43231441,204.394515 Z M197.827074,12.9746835 L191.255895,19.5485232 L197.827074,12.9746835 Z M0.43231441,12.9746835 L7.00349345,19.6350211 L191.255895,19.6350211 L191.255895,198.080169 L7.34934498,198.080169 L7.00349345,19.6350211 L0.43231441,12.9746835 Z M0.43231441,12.9746835 L197.827074,12.9746835 L197.827074,204.394515 L0.43231441,204.394515 L0.43231441,12.9746835 L0.43231441,12.9746835 Z" id="Stroke-4" stroke="#222222" stroke-width="3" stroke-linecap="round" stroke-linejoin="round"></path>
                    <path d="M95.8008734,0.691983122 C97.6157293,0.691983122 99.0864629,2.16331224 99.0864629,3.97890295 C99.0864629,5.79449367 97.6157293,7.26582278 95.8008734,7.26582278 C93.9860175,7.26582278 92.5152838,5.79449367 92.5152838,3.97890295 C92.5152838,2.16331224 93.9860175,0.691983122 95.8008734,0.691983122" id="Fill-6" fill="#000000"></path>
                    <path d="M95.8008734,0.691983122 C97.6157293,0.691983122 99.0864629,2.16331224 99.0864629,3.97890295 C99.0864629,5.79449367 97.6157293,7.26582278 95.8008734,7.26582278 C93.9860175,7.26582278 92.5152838,5.79449367 92.5152838,3.97890295 C92.5152838,2.16331224 93.9860175,0.691983122 95.8008734,0.691983122 L95.8008734,0.691983122 Z" id="Stroke-8" stroke="#222222"></path>
                </g>
                <g id="cat" transform="translate(33.000000, 106.000000)">
                    <g id="Group-44">
                        <path d="M34.055,69.786 L31.055,69.786 L31.055,18.952 L34.055,18.952 L34.055,69.786 Z" id="Fill-4" fill="#222222"></path>
                        <path d="M27.1822,17.2289 C27.1822,17.2289 21.5572,12.5869 20.7482,12.0789 C19.9372,11.5709 17.1002,8.7729 16.8302,8.3269 C16.5642,7.8829 13.2302,4.8309 12.8282,4.7039 C12.4232,4.5769 8.3742,0.8249 6.8862,1.0789 L19.8952,20.7279 L27.1822,17.2289 Z" id="Fill-14" fill="#000000"></path>
                        <path d="M3.1528,40.5294 C3.1528,40.5294 2.6598,30.9334 1.7418,29.8554 C0.5608,28.4634 0.5988,12.4554 0.9418,11.4264 C1.2858,10.3974 1.7378,1.6864 4.7148,1.1354 C10.3018,0.1004 12.3588,5.3974 24.1558,19.6604 L3.1528,40.5294 Z" id="Fill-15" fill="#000000"></path>
                        <path d="M61.0397,19.6601 C61.0397,19.6601 50.0897,17.7531 51.4107,16.5341 C52.5097,15.5191 58.9427,10.2831 59.9257,9.7491 C60.7457,9.0801 64.3577,6.1451 64.6897,5.8411 C65.6177,4.9921 68.1057,3.1881 68.6187,2.8631 C69.3897,2.3641 73.7417,-0.9799 75.6537,2.1781 L61.0397,19.6601" id="Fill-16" fill="#000000"></path>
                        <path d="M76.6413,42.8718 C76.6413,42.8718 77.6693,32.1608 78.3943,30.5998 C79.7283,29.0368 79.4613,12.4548 79.1183,11.4268 C78.7743,10.3978 78.3223,1.6868 75.3443,1.1348 C69.7603,0.0998 67.7003,5.3978 55.9043,19.6598 L76.6413,42.8718 Z" id="Fill-17" fill="#000000"></path>
                        <path d="M39.1893,78.6643 C13.4053,78.7763 0.3703,64.0253 2.0843,45.9603 C3.5443,30.5913 16.4923,14.4013 39.1893,14.8573 C58.1683,15.2403 75.7243,27.2083 77.4373,45.8463 C79.3293,66.4233 64.7463,78.5493 39.1893,78.6643" id="Fill-18" fill="#000000"></path>
                        <path d="M58.0755,27.9687 C65.9505,27.9687 72.3345,34.1487 72.3345,41.7717 C72.3345,49.3947 65.9505,55.5737 58.0755,55.5737 C50.2005,55.5737 43.8165,49.3947 43.8165,41.7717 C43.8165,34.1487 50.2005,27.9687 58.0755,27.9687" id="Fill-19" fill="#FFFFFF"></path>
                        <path d="M57.5615,32.6948 C62.0665,32.6948 65.7175,36.3468 65.7175,40.8508 C65.7175,45.3568 62.0665,49.0078 57.5615,49.0078 C53.0565,49.0078 49.4045,45.3568 49.4045,40.8508 C49.4045,36.3468 53.0565,32.6948 57.5615,32.6948" id="Fill-20" fill="#000000"></path>
                        <path d="M21.4854,27.9687 C29.3604,27.9687 35.7444,34.1487 35.7444,41.7717 C35.7444,49.3947 29.3604,55.5737 21.4854,55.5737 C13.6104,55.5737 7.2264,49.3947 7.2264,41.7717 C7.2264,34.1487 13.6104,27.9687 21.4854,27.9687" id="Fill-21" fill="#FFFFFF"></path>
                        <path d="M21.8869,32.6948 C26.3919,32.6948 30.0429,36.3468 30.0429,40.8508 C30.0429,45.3568 26.3919,49.0078 21.8869,49.0078 C17.3819,49.0078 13.7299,45.3568 13.7299,40.8508 C13.7299,36.3468 17.3819,32.6948 21.8869,32.6948" id="Fill-22" fill="#000000"></path>
                        <path d="M129.353,71.5038 C132.406,58.4628 131.069,51.1518 130.726,48.4068 C130.382,45.6618 127.715,40.7448 123.75,44.9758 C123.75,44.9758 122.874,59.7258 119.29,65.8618 C115.532,72.3008 115.256,71.8948 112.563,74.1808 C105.561,80.1258 101.87,80.2018 98.313,80.2018 C94.755,80.2018 90.953,79.8568 88.496,78.8078 C86.235,77.8418 75.264,75.2758 71.034,66.2428 L23.734,75.8848 C23.734,75.8848 23.849,76.6718 24.022,77.7908 C24.323,79.7338 24.805,82.7048 25.193,84.4318 C24.805,82.7028 24.324,79.7338 24.022,77.7918 C23.962,79.9218 23.716,86.8268 22.985,91.4008 L26.272,91.4008 L27.73,91.4008 L109.669,91.4008 C110.803,91.4008 126.324,84.4488 129.353,71.5038" id="Fill-23" fill="#000000"></path>
                    </g>
                </g>
            </g>
            <path d="M79.276,92.224 C82.252,92.224 83.66,90.56 84.236,88.176 L81.788,87.632 C81.372,89.248 80.684,90.128 79.292,90.128 C77.5,90.128 76.508,88.56 76.508,86.064 C76.508,83.616 77.468,82.096 79.26,82.096 C80.652,82.096 81.228,83.024 81.612,84.384 L84.076,83.664 C83.564,81.536 82.268,79.936 79.276,79.936 C76.284,79.936 73.9,81.952 73.9,86.064 C73.9,90.24 76.188,92.224 79.276,92.224 L79.276,92.224 Z M85.98,92 L88.54,92 L88.54,80.16 L85.98,80.16 L85.98,92 Z M90.668,82.304 L93.26,82.304 L93.26,80.24 L90.668,80.24 L90.668,82.304 Z M90.684,92 L93.244,92 L93.244,83.472 L90.684,83.472 L90.684,92 Z M99.02,92.176 C101.276,92.176 102.332,90.912 102.876,89.584 L100.748,88.848 C100.38,90 99.756,90.368 99.068,90.368 C97.884,90.368 97.404,89.28 97.404,87.76 C97.404,86.064 98.06,85.184 99.1,85.184 C99.852,85.184 100.348,85.536 100.684,86.624 L102.844,85.904 C102.348,84.528 101.452,83.296 99.132,83.296 C97.244,83.296 94.828,84.336 94.828,87.744 C94.828,91.056 97.02,92.176 99.02,92.176 L99.02,92.176 Z M104.172,92 L106.748,92 L106.748,89.696 L107.788,88.528 L109.676,92 L112.332,92 L109.388,86.656 L112.172,83.472 L109.404,83.472 L106.748,86.656 L106.748,80.16 L104.172,80.16 L104.172,92 Z M117.836,92 L120.412,92 L120.412,86.272 C120.988,85.776 121.5,85.424 122.14,85.424 C122.892,85.424 123.068,85.824 123.068,86.592 L123.068,92 L125.644,92 L125.644,86.272 C126.204,85.776 126.716,85.424 127.356,85.424 C128.108,85.424 128.284,85.824 128.284,86.592 L128.284,92 L130.86,92 L130.86,85.904 C130.86,84.384 130.092,83.296 128.364,83.296 C127.02,83.296 126.06,84.16 125.548,84.816 C125.308,83.888 124.636,83.296 123.212,83.296 C121.868,83.296 120.924,84.144 120.412,84.816 L120.412,83.472 L117.836,83.472 L117.836,92 Z M136.636,92.176 C138.124,92.176 139.356,91.744 140.348,90.896 L139.356,89.36 C138.78,89.888 137.836,90.384 136.828,90.384 C135.756,90.384 134.972,89.84 134.844,88.432 L140.492,88.432 L140.492,88.048 C140.492,84.176 138.332,83.296 136.572,83.296 C134.812,83.296 132.284,84.432 132.284,87.744 C132.284,91.04 134.412,92.176 136.636,92.176 L136.636,92.176 Z M134.876,86.912 C135.068,85.664 135.756,85.136 136.556,85.136 C137.516,85.136 138.06,85.712 138.188,86.912 L134.876,86.912 Z M149.868,92.112 C150.428,92.112 151.372,92.032 151.564,91.984 L151.564,90.144 C151.388,90.208 151.004,90.24 150.716,90.24 C149.788,90.24 149.532,89.952 149.532,89.04 L149.532,85.344 L151.724,85.344 L151.724,83.472 L149.532,83.472 L149.532,80.544 L146.972,80.544 L146.972,83.472 L145.548,83.472 L145.548,85.344 L146.972,85.344 L146.972,89.6 C146.972,91.2 147.34,92.112 149.868,92.112 L149.868,92.112 Z M157.02,92.176 C159.084,92.176 161.372,91.056 161.372,87.744 C161.372,84.4 159.084,83.296 157.02,83.296 C154.94,83.296 152.652,84.4 152.652,87.744 C152.652,91.056 154.956,92.176 157.02,92.176 L157.02,92.176 Z M157.02,90.368 C155.708,90.368 155.228,89.184 155.228,87.76 C155.228,86.224 155.788,85.184 157.02,85.184 C158.3,85.184 158.796,86.336 158.796,87.76 C158.796,89.312 158.236,90.368 157.02,90.368 L157.02,90.368 Z M170.892,92.176 C173.148,92.176 174.204,90.912 174.748,89.584 L172.62,88.848 C172.252,90 171.628,90.368 170.94,90.368 C169.756,90.368 169.276,89.28 169.276,87.76 C169.276,86.064 169.932,85.184 170.972,85.184 C171.724,85.184 172.22,85.536 172.556,86.624 L174.716,85.904 C174.22,84.528 173.324,83.296 171.004,83.296 C169.116,83.296 166.7,84.336 166.7,87.744 C166.7,91.056 168.892,92.176 170.892,92.176 L170.892,92.176 Z M179.948,92.176 C182.012,92.176 184.3,91.056 184.3,87.744 C184.3,84.4 182.012,83.296 179.948,83.296 C177.868,83.296 175.58,84.4 175.58,87.744 C175.58,91.056 177.884,92.176 179.948,92.176 L179.948,92.176 Z M179.948,90.368 C178.636,90.368 178.156,89.184 178.156,87.76 C178.156,86.224 178.716,85.184 179.948,85.184 C181.228,85.184 181.724,86.336 181.724,87.76 C181.724,89.312 181.164,90.368 179.948,90.368 L179.948,90.368 Z M185.788,95.2 L188.364,95.2 L188.364,90.992 C189.004,91.712 189.804,92.128 190.956,92.128 C192.908,92.128 194.268,90.672 194.268,87.728 C194.268,84.784 192.924,83.296 190.988,83.296 C189.724,83.296 188.924,84 188.364,84.768 L188.364,83.472 L185.788,83.472 L185.788,95.2 Z M190.076,90.192 C189.388,90.192 188.924,89.936 188.364,89.408 L188.364,86.256 C188.796,85.824 189.388,85.424 190.044,85.424 C191.196,85.424 191.692,86.32 191.692,87.744 C191.692,89.296 191.148,90.192 190.076,90.192 L190.076,90.192 Z M197.116,95.264 C198.828,95.264 199.612,94.368 200.188,92.896 L203.772,83.472 L201.276,83.472 L199.388,89.008 L199.356,89.008 L197.484,83.472 L194.828,83.472 L198.092,92.048 L197.932,92.464 C197.724,92.992 197.404,93.2 196.844,93.2 C196.076,93.2 195.468,93.04 195.228,92.976 L194.684,94.96 C195.132,95.088 195.852,95.264 197.116,95.264 L197.116,95.264 Z M109.26,110 L111.836,110 L111.836,104.272 C112.412,103.776 112.924,103.424 113.564,103.424 C114.316,103.424 114.492,103.824 114.492,104.592 L114.492,110 L117.068,110 L117.068,104.272 C117.628,103.776 118.14,103.424 118.78,103.424 C119.532,103.424 119.708,103.824 119.708,104.592 L119.708,110 L122.284,110 L122.284,103.904 C122.284,102.384 121.516,101.296 119.788,101.296 C118.444,101.296 117.484,102.16 116.972,102.816 C116.732,101.888 116.06,101.296 114.636,101.296 C113.292,101.296 112.348,102.144 111.836,102.816 L111.836,101.472 L109.26,101.472 L109.26,110 Z M125.516,113.264 C127.228,113.264 128.012,112.368 128.588,110.896 L132.172,101.472 L129.676,101.472 L127.788,107.008 L127.756,107.008 L125.884,101.472 L123.228,101.472 L126.492,110.048 L126.332,110.464 C126.124,110.992 125.804,111.2 125.244,111.2 C124.476,111.2 123.868,111.04 123.628,110.976 L123.084,112.96 C123.532,113.088 124.252,113.264 125.516,113.264 L125.516,113.264 Z M142.268,110.192 C145.564,110.192 147.036,108.368 147.036,105.456 L147.036,98.16 L144.476,98.16 L144.476,105.408 C144.476,107.136 143.836,108.08 142.3,108.08 C140.748,108.08 140.092,107.12 140.092,105.408 L140.092,98.16 L137.484,98.16 L137.484,105.472 C137.484,108.368 138.972,110.192 142.268,110.192 L142.268,110.192 Z M149.276,110 L151.836,110 L151.836,105.536 L153.34,105.536 L155.804,110 L158.556,110 L155.916,105.2 C157.5,104.72 158.38,103.696 158.38,101.824 C158.38,99.2 156.636,98.16 153.724,98.16 L149.276,98.16 L149.276,110 Z M151.836,103.52 L151.836,100.288 L153.612,100.288 C155.116,100.288 155.836,100.72 155.836,101.888 C155.836,103.088 155.116,103.52 153.612,103.52 L151.836,103.52 Z M160.556,110 L168.38,110 L168.38,107.888 L163.164,107.888 L163.164,98.16 L160.556,98.16 L160.556,110 Z" id="Click-me-to-copy" fill="#FFFFFF"></path>
        </g>
    </g>
</svg>