<?xml version="1.0" encoding="UTF-8" standalone="no"?>
<svg width="276px" height="276px" viewBox="0 0 276 276" version="1.1" xmlns="http://www.w3.org/2000/svg" xmlns:xlink="http://www.w3.org/1999/xlink">
    <!-- Generator: Sketch 3.6.1 (26313) - http://www.bohemiancoding.com/sketch -->
    <title>drag-in-files</title>
    <desc>Created with Sketch.</desc>
    <defs></defs>
    <g id="Page-1" stroke="none" stroke-width="1" fill="none" fill-rule="evenodd">
        <g id="drag-in-files">
            <rect id="Rectangle-1" fill="#6699CD" x="0" y="0" width="276" height="276"></rect>
            <g id="Group-Copy" transform="translate(199.000000, 124.000000) scale(-1, 1) translate(-199.000000, -124.000000) translate(158.000000, 55.000000)"></g>
            <path d="M42.216,34 L45.848,34 C49.416,34 52.184,32.464 52.184,28.016 C52.184,23.696 49.464,22.16 45.848,22.16 L42.216,22.16 L42.216,34 Z M44.808,31.888 L44.808,24.336 L45.992,24.336 C48.584,24.336 49.576,25.52 49.576,28.048 C49.576,30.736 48.6,31.888 46.024,31.888 L44.808,31.888 Z M53.816,34 L56.392,34 L56.392,28.704 C56.872,28.08 57.64,27.536 58.664,27.536 C58.824,27.536 59.24,27.568 59.336,27.584 L59.368,25.296 L59.288,25.296 C57.688,25.296 56.872,26.176 56.408,26.896 L56.392,26.896 L56.392,25.472 L53.816,25.472 L53.816,34 Z M62.456,34.128 C63.72,34.128 64.648,33.632 65.432,32.752 C65.432,33.232 65.512,33.648 65.624,34 L68.184,34 C68.008,33.568 67.944,32.944 67.944,31.92 L67.944,28.64 C67.944,26.448 66.984,25.296 64.648,25.296 C62.52,25.296 61.24,26.048 60.392,26.816 L61.48,28.288 C62.264,27.68 63.192,27.232 64.28,27.232 C65.112,27.232 65.432,27.632 65.432,28.256 L65.432,28.464 C61.688,28.768 60.024,29.856 60.024,31.824 C60.024,33.28 61.144,34.128 62.456,34.128 L62.456,34.128 Z M63.48,32.192 C62.92,32.192 62.536,31.92 62.536,31.376 C62.536,30.592 63.4,30.08 65.432,29.872 L65.432,31.456 C65,31.888 64.376,32.192 63.48,32.192 L63.48,32.192 Z M73.176,37.2 C76.008,37.2 78.072,36.352 78.072,34.592 C78.072,32.992 76.888,32.288 73.96,32.176 L72.68,32.096 C72.056,32.064 71.72,32 71.72,31.68 C71.72,31.52 71.832,31.392 72.008,31.248 C72.392,31.328 72.84,31.392 73.32,31.392 C75.768,31.392 77.096,30.08 77.096,28.352 C77.096,28.016 77.032,27.728 76.936,27.504 C77.544,27.344 78.072,27.312 78.376,27.312 L78.376,25.344 C77.672,25.392 76.76,25.728 76.184,26.224 C75.544,25.648 74.584,25.296 73.32,25.296 C70.856,25.296 69.48,26.64 69.48,28.352 C69.48,29.376 69.96,30.256 70.888,30.8 C70.216,31.232 69.656,31.84 69.656,32.544 C69.656,32.992 69.864,33.328 70.232,33.568 C69.448,33.888 68.76,34.448 68.76,35.28 C68.76,36.48 69.848,37.2 73.176,37.2 L73.176,37.2 Z M73.352,29.968 C72.424,29.968 71.896,29.312 71.896,28.448 C71.896,27.584 72.408,26.928 73.352,26.928 C74.312,26.928 74.808,27.584 74.808,28.448 C74.808,29.312 74.296,29.968 73.352,29.968 L73.352,29.968 Z M73.592,35.904 C71.848,35.904 71.16,35.552 71.16,34.816 C71.16,34.528 71.32,34.256 71.64,34.048 C71.816,34.064 72.008,34.08 72.2,34.096 L73.544,34.16 C75.56,34.256 75.816,34.496 75.816,35.024 C75.816,35.584 74.904,35.904 73.592,35.904 L73.592,35.904 Z M84.04,24.304 L86.632,24.304 L86.632,22.24 L84.04,22.24 L84.04,24.304 Z M84.056,34 L86.616,34 L86.616,25.472 L84.056,25.472 L84.056,34 Z M88.68,34 L91.256,34 L91.256,28.272 C91.832,27.776 92.424,27.424 93.112,27.424 C93.832,27.424 94.12,27.824 94.12,28.592 L94.12,34 L96.68,34 L96.68,27.776 C96.68,26.016 95.64,25.296 94.2,25.296 C92.712,25.296 91.768,26.144 91.256,26.816 L91.256,25.472 L88.68,25.472 L88.68,34 Z M103.624,34 L106.184,34 L106.184,27.344 L108.04,27.344 L108.04,25.472 L106.184,25.472 L106.184,24.96 C106.184,24.048 106.76,23.936 107.384,23.936 C107.64,23.936 108.008,23.968 108.136,24 L108.136,22.208 C107.992,22.176 107.08,22.096 106.584,22.096 C104.056,22.096 103.624,23.456 103.624,24.88 L103.624,25.472 L102.2,25.472 L102.2,27.344 L103.624,27.344 L103.624,34 Z M109.416,24.304 L112.008,24.304 L112.008,22.24 L109.416,22.24 L109.416,24.304 Z M109.432,34 L111.992,34 L111.992,25.472 L109.432,25.472 L109.432,34 Z M114.136,34 L116.696,34 L116.696,22.16 L114.136,22.16 L114.136,34 Z M122.632,34.176 C124.12,34.176 125.352,33.744 126.344,32.896 L125.352,31.36 C124.776,31.888 123.832,32.384 122.824,32.384 C121.752,32.384 120.968,31.84 120.84,30.432 L126.488,30.432 L126.488,30.048 C126.488,26.176 124.328,25.296 122.568,25.296 C120.808,25.296 118.28,26.432 118.28,29.744 C118.28,33.04 120.408,34.176 122.632,34.176 L122.632,34.176 Z M120.872,28.912 C121.064,27.664 121.752,27.136 122.552,27.136 C123.512,27.136 124.056,27.712 124.184,28.912 L120.872,28.912 Z M131.336,34.176 C133.304,34.176 135.096,33.36 135.096,31.296 C135.096,29.36 133.32,28.976 131.64,28.688 C130.584,28.496 130.12,28.288 130.12,27.776 C130.12,27.312 130.536,27.024 131.272,27.024 C132.072,27.024 132.92,27.36 133.784,27.952 L134.792,26.496 C133.848,25.744 132.792,25.296 131.048,25.296 C129.144,25.296 127.736,26.288 127.736,28 C127.736,30 129.464,30.384 131.08,30.672 C132.248,30.88 132.696,31.104 132.696,31.696 C132.696,32.256 132.136,32.528 131.336,32.528 C130.296,32.528 129.144,32.096 128.376,31.424 L127.352,32.864 C128.216,33.6 129.464,34.176 131.336,34.176 L131.336,34.176 Z M144.408,34.112 C144.968,34.112 145.912,34.032 146.104,33.984 L146.104,32.144 C145.928,32.208 145.544,32.24 145.256,32.24 C144.328,32.24 144.072,31.952 144.072,31.04 L144.072,27.344 L146.264,27.344 L146.264,25.472 L144.072,25.472 L144.072,22.544 L141.512,22.544 L141.512,25.472 L140.088,25.472 L140.088,27.344 L141.512,27.344 L141.512,31.6 C141.512,33.2 141.88,34.112 144.408,34.112 L144.408,34.112 Z M151.56,34.176 C153.624,34.176 155.912,33.056 155.912,29.744 C155.912,26.4 153.624,25.296 151.56,25.296 C149.48,25.296 147.192,26.4 147.192,29.744 C147.192,33.056 149.496,34.176 151.56,34.176 L151.56,34.176 Z M151.56,32.368 C150.248,32.368 149.768,31.184 149.768,29.76 C149.768,28.224 150.328,27.184 151.56,27.184 C152.84,27.184 153.336,28.336 153.336,29.76 C153.336,31.312 152.776,32.368 151.56,32.368 L151.56,32.368 Z M163.576,34.128 C164.84,34.128 165.768,33.632 166.552,32.752 C166.552,33.232 166.632,33.648 166.744,34 L169.304,34 C169.128,33.568 169.064,32.944 169.064,31.92 L169.064,28.64 C169.064,26.448 168.104,25.296 165.768,25.296 C163.64,25.296 162.36,26.048 161.512,26.816 L162.6,28.288 C163.384,27.68 164.312,27.232 165.4,27.232 C166.232,27.232 166.552,27.632 166.552,28.256 L166.552,28.464 C162.808,28.768 161.144,29.856 161.144,31.824 C161.144,33.28 162.264,34.128 163.576,34.128 L163.576,34.128 Z M164.6,32.192 C164.04,32.192 163.656,31.92 163.656,31.376 C163.656,30.592 164.52,30.08 166.552,29.872 L166.552,31.456 C166.12,31.888 165.496,32.192 164.6,32.192 L164.6,32.192 Z M173.752,34.128 C175.016,34.128 175.816,33.488 176.376,32.72 C176.376,33.152 176.456,33.792 176.568,34 L179.208,34 C179.016,33.568 178.952,32.944 178.952,31.92 L178.952,22.16 L176.376,22.16 L176.376,26.544 C175.768,25.712 174.936,25.296 173.784,25.296 C171.832,25.296 170.472,26.864 170.472,29.808 C170.472,32.752 171.816,34.128 173.752,34.128 L173.752,34.128 Z M174.712,32.192 C173.56,32.192 173.048,31.216 173.048,29.792 C173.048,28.24 173.608,27.424 174.68,27.424 C175.352,27.424 175.816,27.68 176.376,28.208 L176.376,31.36 C175.96,31.792 175.368,32.192 174.712,32.192 L174.712,32.192 Z M183.736,34.128 C185,34.128 185.8,33.488 186.36,32.72 C186.36,33.152 186.44,33.792 186.552,34 L189.192,34 C189,33.568 188.936,32.944 188.936,31.92 L188.936,22.16 L186.36,22.16 L186.36,26.544 C185.752,25.712 184.92,25.296 183.768,25.296 C181.816,25.296 180.456,26.864 180.456,29.808 C180.456,32.752 181.8,34.128 183.736,34.128 L183.736,34.128 Z M184.696,32.192 C183.544,32.192 183.032,31.216 183.032,29.792 C183.032,28.24 183.592,27.424 184.664,27.424 C185.336,27.424 185.8,27.68 186.36,28.208 L186.36,31.36 C185.944,31.792 185.352,32.192 184.696,32.192 L184.696,32.192 Z M198.792,34.112 C199.352,34.112 200.296,34.032 200.488,33.984 L200.488,32.144 C200.312,32.208 199.928,32.24 199.64,32.24 C198.712,32.24 198.456,31.952 198.456,31.04 L198.456,27.344 L200.648,27.344 L200.648,25.472 L198.456,25.472 L198.456,22.544 L195.896,22.544 L195.896,25.472 L194.472,25.472 L194.472,27.344 L195.896,27.344 L195.896,31.6 C195.896,33.2 196.264,34.112 198.792,34.112 L198.792,34.112 Z M202.04,34 L204.616,34 L204.616,28.272 C205.192,27.776 205.784,27.424 206.488,27.424 C207.192,27.424 207.48,27.824 207.48,28.592 L207.48,34 L210.056,34 L210.056,27.776 C210.056,26.016 209.016,25.296 207.56,25.296 C206.072,25.296 205.128,26.144 204.616,26.816 L204.616,22.16 L202.04,22.16 L202.04,34 Z M215.816,34.176 C217.304,34.176 218.536,33.744 219.528,32.896 L218.536,31.36 C217.96,31.888 217.016,32.384 216.008,32.384 C214.936,32.384 214.152,31.84 214.024,30.432 L219.672,30.432 L219.672,30.048 C219.672,26.176 217.512,25.296 215.752,25.296 C213.992,25.296 211.464,26.432 211.464,29.744 C211.464,33.04 213.592,34.176 215.816,34.176 L215.816,34.176 Z M214.056,28.912 C214.248,27.664 214.936,27.136 215.736,27.136 C216.696,27.136 217.24,27.712 217.368,28.912 L214.056,28.912 Z M221.16,34 L223.736,34 L223.736,28.272 C224.312,27.776 224.824,27.424 225.464,27.424 C226.216,27.424 226.392,27.824 226.392,28.592 L226.392,34 L228.968,34 L228.968,28.272 C229.528,27.776 230.04,27.424 230.68,27.424 C231.432,27.424 231.608,27.824 231.608,28.592 L231.608,34 L234.184,34 L234.184,27.904 C234.184,26.384 233.416,25.296 231.688,25.296 C230.344,25.296 229.384,26.16 228.872,26.816 C228.632,25.888 227.96,25.296 226.536,25.296 C225.192,25.296 224.248,26.144 223.736,26.816 L223.736,25.472 L221.16,25.472 L221.16,34 Z" id="Drag-in-files-to-add" fill="#FFFFFF"></path>
            <g id="Group-3" transform="translate(139.000000, 55.000000)">
                <path d="M68.6201371,79.409765 C68.6201371,79.409765 68.3266854,83.8868253 64.8253781,87.0821899 C63.2589976,88.5117007 61.0505966,89.6846928 57.9392289,90.0855462 C50.231221,90.0914056 6.73341831,90.1783197 6.73341831,90.1783197 C6.73341831,90.1783197 3.05041418,89.2373602 0.45656283,84.0496575 C0.456562816,83.0496575 -1.55417935,101.062353 2.8637894,115.431005 C7.28175815,129.799658 22.4565628,133.049658 22.4565628,133.049658 C22.4565628,133.049658 40.4565598,139.049658 60.4565628,133.049658 C67.4565628,129.049658 75.4565598,125.049658 79.4565628,107.049658 C80.4565628,101.049658 80.4565598,100.049658 80.4565628,96.0496575 C80.4565659,92.0496575 80.4565628,16.0496575 80.4565628,16.0496575 C80.4565628,16.0496575 80,3 73.4565659,1.04965759 C69.6201401,0.0496576156 59.4565636,-1.95034286 58.4565628,5.04965754 C57.456562,12.049658 60.456562,12.049658 62.4565628,13.0496575 C66.4565659,14.0496578 68.6201401,13.049658 68.6201401,21.049658 C68.6201401,29.049658 68.6201371,79.409765 68.6201371,79.409765 Z" id="Path-4611-Copy" stroke="#222222" stroke-width="3" stroke-linecap="round" stroke-linejoin="bevel" fill="#F3B9BA"></path>
                <path d="M35,136 L22.5,167.5 L35,203.5" id="Path-4625" stroke="#222222" stroke-width="3" stroke-linecap="round"></path>
                <path d="M55.8166337,7.55483749 L48.4522119,10.0722674 C48.1590925,10.1726383 47.9736746,10.4591516 48.0030478,10.7651309 C48.0330328,11.0717184 48.2704657,11.3180834 48.5770478,11.3600567 L59.3967642,12.8619706 C59.4273612,12.8656205 59.4585702,12.8680537 59.4891672,12.8680537 C59.7553612,12.8680537 60.0007493,12.7098935 60.1066149,12.4598786 C60.2234955,12.1812733 60.1378239,11.859478 59.8967194,11.6751605 C58.0884358,10.2936917 58.3283164,7.7211546 58.3301522,7.69743056 C58.3398473,7.60780125 58.3310143,7.5186491 58.3057063,7.4348501 C58.3405186,7.32013905 58.344089,7.19635099 58.3133239,7.07665163 C57.7846075,5.03090979 59.5751448,3.14636973 59.5922791,3.12933709 C59.8015627,2.91399585 59.8407269,2.58611751 59.6883537,2.32819466 C59.5359806,2.07027181 59.2281746,1.94435193 58.937503,2.02343205 L48.4959657,4.8192184 C48.195503,4.89951513 47.990503,5.17447062 48.000906,5.48349139 C48.011309,5.79251217 48.2340552,6.05347656 48.5388015,6.11430742 L55.8166337,7.55483749 Z" id="Combined-Shape-Copy" fill="#222222"></path>
                <g id="Group-2-Copy" transform="translate(7.000000, 95.000000)" stroke="#222222" stroke-width="3" stroke-linecap="round">
                    <path d="M65,3 C65,3 69.7084961,32 34,32 C6,32 4.00000007,18.5000009 1,10.5 C-2.00000007,2.49999906 3.50000015,-0.499999754 5.00000018,3.00000007 C6.5000002,6.4999999 7.0000002,11.5000004 7.0000002,11.5000004" id="Path-4613" stroke-linejoin="bevel"></path>
                    <path d="M5,2.50000006 C5,2.50000006 6.5,-0.99999999 9.5,1.49999994 C10,1.99999994 12,8.49999985 12,11" id="Path-4614" stroke-linejoin="round"></path>
                    <path d="M10,1.90027707 C10,1.90027707 13,-1.00000002 15,1.90027702 C15.5,2.40027702 16.5,6.99999983 17,10.9999998" id="Path-4614-Copy" stroke-linejoin="round"></path>
                </g>
                <circle id="Oval-1" fill="#222222" cx="64.5" cy="5.5" r="1.5"></circle>
                <path d="M45.5,136 L45.5,203.501852" id="Path-4624" stroke="#222222" stroke-width="3" stroke-linecap="round"></path>
            </g>
            <g id="Group" transform="translate(30.000000, 96.000000)">
                <path d="M75.4562993,4.90513925 L144.66532,4.90513925 L144.66532,73.868772 L75.4562993,73.868772 L75.4562993,4.90513925 Z" id="Fill-10" fill="#E96C64"></path>
                <path d="M75.4562993,4.90513925 L144.66532,4.90513925 L144.66532,73.868772 L75.4562993,73.868772 L75.4562993,4.90513925 L75.4562993,4.90513925 Z" id="Stroke-12" stroke="#222222" stroke-width="3"></path>
                <path d="M56.1537835,0.320851527 C87.085815,0.320851527 112.161083,25.3072128 112.161083,56.1295716 C112.161083,86.9519305 87.085815,111.938292 56.1537835,111.938292 C25.2217519,111.938292 0.146483739,86.9519305 0.146483739,56.1295716 C0.146483739,25.3072128 25.2217519,0.320851527 56.1537835,0.320851527" id="Fill-14" fill="#FFFFFF"></path>
                <path d="M56.1537835,0.320851527 C87.085815,0.320851527 112.161083,25.3072128 112.161083,56.1295716 C112.161083,86.9519305 87.085815,111.938292 56.1537835,111.938292 C25.2217519,111.938292 0.146483739,86.9519305 0.146483739,56.1295716 C0.146483739,25.3072128 25.2217519,0.320851527 56.1537835,0.320851527 L56.1537835,0.320851527 Z" id="Stroke-16" stroke="#222222" stroke-width="3"></path>
                <path d="M98.3592844,109.546489 C129.263312,109.546489 154.366584,84.5322238 154.366584,53.7377693 L42.3519846,53.7377693 C42.3519846,84.6318823 67.3552434,109.546489 98.3592844,109.546489" id="Fill-18" fill="#6498CF"></path>
                <path d="M98.3592844,109.546489 C129.263312,109.546489 154.366584,84.5322238 154.366584,53.7377693 L42.3519846,53.7377693 C42.3519846,84.6318823 67.3552434,109.546489 98.3592844,109.546489 L98.3592844,109.546489 Z" id="Stroke-20" stroke="#222222" stroke-width="3"></path>
            </g>
        </g>
    </g>
</svg>