<svg width="29" height="15" viewBox="0 0 29 15" xmlns="http://www.w3.org/2000/svg" xmlns:sketch="http://www.bohemiancoding.com/sketch/ns"><title>preview</title><desc>Created with Sketch.</desc><g sketch:type="MSLayerGroup" fill="none"><path d="M2.805 8.461l6.219-6.218s.882-.93 2.226-.462m8.41 7.36l6.898-6.898s.882-.93 2.226-.462" stroke="#222" stroke-width="1.5" sketch:type="MSShapeGroup"/><path d="M8.991 8.514l-.001.002.484.761c.599-.599 2.121-.559 2.745.017l.482-.801c-1.045-.996-2.694-.995-3.71.021" fill="#222" sketch:type="MSShapeGroup"/><path d="M5.199 5.411c-2.416 0-4.375 1.958-4.375 4.375 0 2.416 1.959 4.375 4.375 4.375 2.417 0 4.375-1.959 4.375-4.375 0-2.417-1.958-4.375-4.375-4.375zm1.703 4.375c-.032-.785-.675-1.414-1.468-1.414h-.002v-1h.002c1.344 0 2.436 1.078 2.468 2.414h-1z" fill="#222" sketch:type="MSShapeGroup"/><path d="M16.356 5.411c-2.417 0-4.375 1.958-4.375 4.375 0 2.416 1.958 4.375 4.375 4.375 2.416 0 4.375-1.959 4.375-4.375 0-2.417-1.959-4.375-4.375-4.375zm1.702 4.375c-.032-.785-.675-1.414-1.467-1.414h-.003v-1h.003c1.344 0 2.435 1.078 2.467 2.414h-1z" fill="#222" sketch:type="MSShapeGroup"/></g></svg>