<?xml version="1.0" encoding="UTF-8" standalone="no"?>
<svg width="276px" height="276px" viewBox="0 0 276 276" version="1.1" xmlns="http://www.w3.org/2000/svg" xmlns:xlink="http://www.w3.org/1999/xlink">
    <!-- Generator: Sketch 3.6.1 (26313) - http://www.bohemiancoding.com/sketch -->
    <title>use-url</title>
    <desc>Created with Sketch.</desc>
    <defs></defs>
    <g id="Page-1" stroke="none" stroke-width="1" fill="none" fill-rule="evenodd">
        <g id="use-url">
            <rect id="Rectangle-1-Copy-2" fill="#2AB3B9" x="0" y="0" width="276" height="276"></rect>
            <g id="Page-1" transform="translate(51.000000, 82.000000)">
                <path d="M0.625,75.4242337 L122.8775,75.4242337 L174.5075,117.378823 L50.655,117.378823 L0.625,75.4242337 Z" id="Fill-1" fill="#FCF3B0"></path>
                <path d="M0.625,75.4242337 L122.8775,75.4242337 L174.5075,117.378823 L50.655,117.378823 L0.625,75.4242337 L0.625,75.4242337 Z" id="Stroke-2" stroke="#222222" stroke-width="3" stroke-linecap="round" stroke-linejoin="round"></path>
                <path d="M24.5045,82.0976926 L114.917,82.0976926 L149.03575,108.232829 L57.022,108.232829 L24.5045,82.0976926 Z" id="Fill-4" fill="#FCF3B0"></path>
                <path d="M24.5045,82.0976926 L114.917,82.0976926 L149.03575,108.232829 L57.022,108.232829 L24.5045,82.0976926 L24.5045,82.0976926 Z" id="Stroke-5" stroke="#222222" stroke-width="3" stroke-linecap="round" stroke-linejoin="round"></path>
                <path d="M0.625,0.926610526 L124.62625,0.926610526 L124.62625,75.4243579 L0.625,75.4243579 L0.625,0.926610526 Z" id="Fill-6" fill="#FCF3B0"></path>
                <path d="M0.625,0.926610526 L124.62625,0.926610526 L124.62625,75.4243579 L0.625,75.4243579 L0.625,0.926610526 Z" id="Stroke-7" stroke="#222222" stroke-width="3" stroke-linecap="round" stroke-linejoin="round"></path>
                <path d="M9.115,9.49092632 L116.135,9.49092632 L116.135,67.8947158 L9.115,67.8947158 L9.115,9.49092632 Z" id="Fill-9" fill="#FFFFFF"></path>
                <path d="M9.115,9.49092632 L116.135,9.49092632 L116.135,67.8947158 L9.115,67.8947158 L9.115,9.49092632 Z" id="Stroke-10" stroke="#222222" stroke-width="3" stroke-linejoin="round"></path>
                <g id="Group-13" transform="translate(46.250000, 81.978947)">
                    <path d="M0.389875,0.118745263 L32.826125,26.2538821" id="Fill-11" fill="#FFFFFF"></path>
                    <path d="M0.389875,0.118745263 L32.826125,26.2538821" id="Stroke-12" stroke="#222222" stroke-width="3" stroke-linejoin="round"></path>
                </g>
                <g id="Group-16" transform="translate(68.750000, 81.978947)">
                    <path d="M0.21025,0.118745263 L32.6465,26.2538821" id="Fill-14" fill="#FFFFFF"></path>
                    <path d="M0.21025,0.118745263 L32.6465,26.2538821" id="Stroke-15" stroke="#222222" stroke-width="3" stroke-linejoin="round"></path>
                </g>
                <g id="Group-19" transform="translate(92.500000, 81.978947)">
                    <path d="M0.0385,0.118745263 L32.47475,26.2538821" id="Fill-17" fill="#FFFFFF"></path>
                    <path d="M0.0385,0.118745263 L32.47475,26.2538821" id="Stroke-18" stroke="#222222" stroke-width="3" stroke-linejoin="round"></path>
                </g>
                <path d="M35.313625,89 L126.336125,89 L35.313625,89 Z" id="Fill-20" fill="#FFFFFF"></path>
                <path d="M33.31325,89 L124.337,89" id="Stroke-21" stroke="#222222" stroke-width="3" stroke-linejoin="round"></path>
                <path d="M46.640125,99 L138.433875,99 L46.640125,99 Z" id="Fill-22" fill="#FFFFFF"></path>
                <path d="M45.639875,99 L137,99" id="Stroke-23" stroke="#222222" stroke-width="3" stroke-linejoin="round"></path>
                <path d="M17.122375,17 L26.096125,17 L17.122375,17 Z" id="Fill-24" fill="#FFFFFF"></path>
                <path d="M17.122125,17 L26.095875,17" id="Stroke-25" stroke="#222222" stroke-width="3" stroke-linecap="round" stroke-linejoin="round"></path>
                <path d="M17.122375,27 L38.083625,27 L17.122375,27 Z" id="Fill-26" fill="#FFFFFF"></path>
                <path d="M17.122125,27 L38.083375,27" id="Stroke-27" stroke="#222222" stroke-width="3" stroke-linecap="round" stroke-linejoin="round"></path>
                <path d="M17.122375,36 L65.942375,36 L17.122375,36 Z" id="Fill-28" fill="#FFFFFF"></path>
                <path d="M17.122125,36 L65.942125,36" id="Stroke-29" stroke="#222222" stroke-width="3" stroke-linecap="round" stroke-linejoin="round"></path>
                <path d="M62.62525,27 L83.719,27 L62.62525,27 Z" id="Fill-30" fill="#FFFFFF"></path>
                <path d="M62.6255,27 L83.71925,27" id="Stroke-31" stroke="#222222" stroke-width="3" stroke-linecap="round" stroke-linejoin="round"></path>
                <path d="M91.27225,27 L103.0885,27 L91.27225,27 Z" id="Fill-32" fill="#FFFFFF"></path>
                <path d="M91.272375,27 L103.088625,27" id="Stroke-33" stroke="#222222" stroke-width="3" stroke-linecap="round" stroke-linejoin="round"></path>
                <path d="M45.242875,27 L55.229125,27 L45.242875,27 Z" id="Fill-34" fill="#FFFFFF"></path>
                <path d="M45.242875,27 L55.230375,27" id="Stroke-35" stroke="#222222" stroke-width="3" stroke-linecap="round" stroke-linejoin="round"></path>
                <path d="M33.837625,17 L38.083875,17 L33.837625,17 Z" id="Fill-36" fill="#FFFFFF"></path>
                <path d="M33.83775,17 L38.08275,17" id="Stroke-37" stroke="#222222" stroke-width="3" stroke-linecap="round" stroke-linejoin="round"></path>
                <path d="M44.51725,17 L65.9435,17 L44.51725,17 Z" id="Fill-38" fill="#FFFFFF"></path>
                <path d="M44.51725,17 L65.94225,17" id="Stroke-39" stroke="#222222" stroke-width="3" stroke-linecap="round" stroke-linejoin="round"></path>
            </g>
            <path d="M45.86,34.192 C49.156,34.192 50.628,32.368 50.628,29.456 L50.628,22.16 L48.068,22.16 L48.068,29.408 C48.068,31.136 47.428,32.08 45.892,32.08 C44.34,32.08 43.684,31.12 43.684,29.408 L43.684,22.16 L41.076,22.16 L41.076,29.472 C41.076,32.368 42.564,34.192 45.86,34.192 L45.86,34.192 Z M55.988,34.176 C57.956,34.176 59.748,33.36 59.748,31.296 C59.748,29.36 57.972,28.976 56.292,28.688 C55.236,28.496 54.772,28.288 54.772,27.776 C54.772,27.312 55.188,27.024 55.924,27.024 C56.724,27.024 57.572,27.36 58.436,27.952 L59.444,26.496 C58.5,25.744 57.444,25.296 55.7,25.296 C53.796,25.296 52.388,26.288 52.388,28 C52.388,30 54.116,30.384 55.732,30.672 C56.9,30.88 57.348,31.104 57.348,31.696 C57.348,32.256 56.788,32.528 55.988,32.528 C54.948,32.528 53.796,32.096 53.028,31.424 L52.004,32.864 C52.868,33.6 54.116,34.176 55.988,34.176 L55.988,34.176 Z M65.06,34.176 C66.548,34.176 67.78,33.744 68.772,32.896 L67.78,31.36 C67.204,31.888 66.26,32.384 65.252,32.384 C64.18,32.384 63.396,31.84 63.268,30.432 L68.916,30.432 L68.916,30.048 C68.916,26.176 66.756,25.296 64.996,25.296 C63.236,25.296 60.708,26.432 60.708,29.744 C60.708,33.04 62.836,34.176 65.06,34.176 L65.06,34.176 Z M63.3,28.912 C63.492,27.664 64.18,27.136 64.98,27.136 C65.94,27.136 66.484,27.712 66.612,28.912 L63.3,28.912 Z M78.292,34.112 C78.852,34.112 79.796,34.032 79.988,33.984 L79.988,32.144 C79.812,32.208 79.428,32.24 79.14,32.24 C78.212,32.24 77.956,31.952 77.956,31.04 L77.956,27.344 L80.148,27.344 L80.148,25.472 L77.956,25.472 L77.956,22.544 L75.396,22.544 L75.396,25.472 L73.972,25.472 L73.972,27.344 L75.396,27.344 L75.396,31.6 C75.396,33.2 75.764,34.112 78.292,34.112 L78.292,34.112 Z M81.54,34 L84.116,34 L84.116,28.272 C84.692,27.776 85.284,27.424 85.988,27.424 C86.692,27.424 86.98,27.824 86.98,28.592 L86.98,34 L89.556,34 L89.556,27.776 C89.556,26.016 88.516,25.296 87.06,25.296 C85.572,25.296 84.628,26.144 84.116,26.816 L84.116,22.16 L81.54,22.16 L81.54,34 Z M95.316,34.176 C96.804,34.176 98.036,33.744 99.028,32.896 L98.036,31.36 C97.46,31.888 96.516,32.384 95.508,32.384 C94.436,32.384 93.652,31.84 93.524,30.432 L99.172,30.432 L99.172,30.048 C99.172,26.176 97.012,25.296 95.252,25.296 C93.492,25.296 90.964,26.432 90.964,29.744 C90.964,33.04 93.092,34.176 95.316,34.176 L95.316,34.176 Z M93.556,28.912 C93.748,27.664 94.436,27.136 95.236,27.136 C96.196,27.136 96.74,27.712 96.868,28.912 L93.556,28.912 Z M109.796,34.192 C113.092,34.192 114.564,32.368 114.564,29.456 L114.564,22.16 L112.004,22.16 L112.004,29.408 C112.004,31.136 111.364,32.08 109.828,32.08 C108.276,32.08 107.62,31.12 107.62,29.408 L107.62,22.16 L105.012,22.16 L105.012,29.472 C105.012,32.368 106.5,34.192 109.796,34.192 L109.796,34.192 Z M116.804,34 L119.364,34 L119.364,29.536 L120.868,29.536 L123.332,34 L126.084,34 L123.444,29.2 C125.028,28.72 125.908,27.696 125.908,25.824 C125.908,23.2 124.164,22.16 121.252,22.16 L116.804,22.16 L116.804,34 Z M119.364,27.52 L119.364,24.288 L121.14,24.288 C122.644,24.288 123.364,24.72 123.364,25.888 C123.364,27.088 122.644,27.52 121.14,27.52 L119.364,27.52 Z M128.084,34 L135.908,34 L135.908,31.888 L130.692,31.888 L130.692,22.16 L128.084,22.16 L128.084,34 Z M141.604,24.304 L144.196,24.304 L144.196,22.24 L141.604,22.24 L141.604,24.304 Z M141.62,34 L144.18,34 L144.18,25.472 L141.62,25.472 L141.62,34 Z M146.244,34 L148.82,34 L148.82,28.272 C149.396,27.776 149.988,27.424 150.676,27.424 C151.396,27.424 151.684,27.824 151.684,28.592 L151.684,34 L154.244,34 L154.244,27.776 C154.244,26.016 153.204,25.296 151.764,25.296 C150.276,25.296 149.332,26.144 148.82,26.816 L148.82,25.472 L146.244,25.472 L146.244,34 Z M161.764,37.264 C163.476,37.264 164.26,36.368 164.836,34.896 L168.42,25.472 L165.924,25.472 L164.036,31.008 L164.004,31.008 L162.132,25.472 L159.476,25.472 L162.74,34.048 L162.58,34.464 C162.372,34.992 162.052,35.2 161.492,35.2 C160.724,35.2 160.116,35.04 159.876,34.976 L159.332,36.96 C159.78,37.088 160.5,37.264 161.764,37.264 L161.764,37.264 Z M173.284,34.176 C175.348,34.176 177.636,33.056 177.636,29.744 C177.636,26.4 175.348,25.296 173.284,25.296 C171.204,25.296 168.916,26.4 168.916,29.744 C168.916,33.056 171.22,34.176 173.284,34.176 L173.284,34.176 Z M173.284,32.368 C171.972,32.368 171.492,31.184 171.492,29.76 C171.492,28.224 172.052,27.184 173.284,27.184 C174.564,27.184 175.06,28.336 175.06,29.76 C175.06,31.312 174.5,32.368 173.284,32.368 L173.284,32.368 Z M181.54,34.176 C183.028,34.176 183.972,33.328 184.484,32.672 L184.484,34 L187.06,34 L187.06,25.472 L184.484,25.472 L184.484,31.264 C183.908,31.76 183.316,32.128 182.628,32.128 C181.908,32.128 181.62,31.712 181.62,30.944 L181.62,25.472 L179.044,25.472 L179.044,31.696 C179.044,33.456 180.084,34.176 181.54,34.176 L181.54,34.176 Z M189.012,34 L191.588,34 L191.588,28.704 C192.068,28.08 192.836,27.536 193.86,27.536 C194.02,27.536 194.436,27.568 194.532,27.584 L194.564,25.296 L194.484,25.296 C192.884,25.296 192.068,26.176 191.604,26.896 L191.588,26.896 L191.588,25.472 L189.012,25.472 L189.012,34 Z M203.812,34.176 C206.068,34.176 207.124,32.912 207.668,31.584 L205.54,30.848 C205.172,32 204.548,32.368 203.86,32.368 C202.676,32.368 202.196,31.28 202.196,29.76 C202.196,28.064 202.852,27.184 203.892,27.184 C204.644,27.184 205.14,27.536 205.476,28.624 L207.636,27.904 C207.14,26.528 206.244,25.296 203.924,25.296 C202.036,25.296 199.62,26.336 199.62,29.744 C199.62,33.056 201.812,34.176 203.812,34.176 L203.812,34.176 Z M212.868,34.176 C214.932,34.176 217.22,33.056 217.22,29.744 C217.22,26.4 214.932,25.296 212.868,25.296 C210.788,25.296 208.5,26.4 208.5,29.744 C208.5,33.056 210.804,34.176 212.868,34.176 L212.868,34.176 Z M212.868,32.368 C211.556,32.368 211.076,31.184 211.076,29.76 C211.076,28.224 211.636,27.184 212.868,27.184 C214.148,27.184 214.644,28.336 214.644,29.76 C214.644,31.312 214.084,32.368 212.868,32.368 L212.868,32.368 Z M221.524,34.128 C222.788,34.128 223.588,33.488 224.148,32.72 C224.148,33.152 224.228,33.792 224.34,34 L226.98,34 C226.788,33.568 226.724,32.944 226.724,31.92 L226.724,22.16 L224.148,22.16 L224.148,26.544 C223.54,25.712 222.708,25.296 221.556,25.296 C219.604,25.296 218.244,26.864 218.244,29.808 C218.244,32.752 219.588,34.128 221.524,34.128 L221.524,34.128 Z M222.484,32.192 C221.332,32.192 220.82,31.216 220.82,29.792 C220.82,28.24 221.38,27.424 222.452,27.424 C223.124,27.424 223.588,27.68 224.148,28.208 L224.148,31.36 C223.732,31.792 223.14,32.192 222.484,32.192 L222.484,32.192 Z M232.58,34.176 C234.068,34.176 235.3,33.744 236.292,32.896 L235.3,31.36 C234.724,31.888 233.78,32.384 232.772,32.384 C231.7,32.384 230.916,31.84 230.788,30.432 L236.436,30.432 L236.436,30.048 C236.436,26.176 234.276,25.296 232.516,25.296 C230.756,25.296 228.228,26.432 228.228,29.744 C228.228,33.04 230.356,34.176 232.58,34.176 L232.58,34.176 Z M230.82,28.912 C231.012,27.664 231.7,27.136 232.5,27.136 C233.46,27.136 234.004,27.712 234.132,28.912 L230.82,28.912 Z" id="Use-the-URL-in-your-" fill="#FFFFFF"></path>
        </g>
    </g>
</svg>