<?xml version="1.0" encoding="UTF-8" standalone="no"?>
<svg width="30px" height="20px" viewBox="0 0 30 20" version="1.1" xmlns="http://www.w3.org/2000/svg" xmlns:xlink="http://www.w3.org/1999/xlink" xmlns:sketch="http://www.bohemiancoding.com/sketch/ns">
    <!-- Generator: Sketch 3.3.2 (12043) - http://www.bohemiancoding.com/sketch -->
    <title>Imported Layers</title>
    <desc>Created with Sketch.</desc>
    <defs></defs>
    <g id="Page-2" stroke="none" stroke-width="1" fill="none" fill-rule="evenodd" sketch:type="MSPage">
        <g id="bog.bar---logged-in-2" sketch:type="MSArtboardGroup" transform="translate(-105.438600, -1097.000000)" fill="#858585">
            <g id="Imported-Layers" sketch:type="MSLayerGroup" transform="translate(105.500000, 1097.421875)">
                <path d="M17.67318,0.0742985075 L11.37438,0.0742985075 C10.6459,0.0742985075 10.0543,0.651955224 10.0543,1.36431343 L10.0543,7.52371642 C10.0543,8.23635821 10.6459,8.81458209 11.37438,8.81458209 L17.67318,8.81458209 C18.40166,8.81458209 18.99384,8.23635821 18.99384,7.52371642 L18.99384,1.36431343 C18.99384,0.651955224 18.40166,0.0742985075 17.67318,0.0742985075 L17.67318,0.0742985075 Z M13.5691,4.83932836 L14.52407,3.45062687 L15.47846,4.83932836 L13.5691,4.83932836 L13.5691,4.83932836 Z" id="Fill-1" sketch:type="MSShapeGroup"></path>
                <path d="M17.64969,9.97641791 L11.35089,9.97641791 C10.62212,9.97641791 10.03168,10.5540746 10.03168,11.2672836 L10.03168,17.4252687 C10.03168,18.1393284 10.62241,18.7167015 11.35089,18.7167015 L17.64969,18.7167015 C18.37933,18.7167015 18.97035,18.1393284 18.97035,17.4252687 L18.97035,11.2672836 C18.97035,10.5540746 18.37933,9.97641791 17.64969,9.97641791 L17.64969,9.97641791 Z M14.52407,15.2802537 L13.5691,13.8912687 L15.47817,13.8912687 L14.52407,15.2802537 L14.52407,15.2802537 Z" id="Fill-2" sketch:type="MSShapeGroup"></path>
                <path d="M27.68166,9.97641791 L21.38315,9.97641791 C20.65322,9.97641791 20.06249,10.5540746 20.06249,11.2672836 L20.06249,17.4252687 C20.06249,18.1393284 20.65322,18.7167015 21.38315,18.7167015 L27.68166,18.7167015 C28.41188,18.7167015 29,18.1393284 29,17.4252687 L29,11.2672836 C29,10.5540746 28.41188,9.97641791 27.68166,9.97641791 L27.68166,9.97641791 Z M24.18716,15.2802537 L24.18716,13.4120149 L25.60758,14.3467015 L24.18716,15.2802537 L24.18716,15.2802537 Z" id="Fill-3" sketch:type="MSShapeGroup"></path>
                <path d="M7.61801,9.97641791 L1.3195,9.97641791 C0.59073,9.97641791 0,10.5540746 0,11.2672836 L0,17.4252687 C0,18.1393284 0.59073,18.7167015 1.3195,18.7167015 L7.61801,18.7167015 C8.34649,18.7167015 8.93809,18.1393284 8.93809,17.4252687 L8.93809,11.2672836 C8.93809,10.5540746 8.34649,9.97641791 7.61801,9.97641791 L7.61801,9.97641791 Z M4.84039,15.2802537 L3.42055,14.3467015 L4.84039,13.4120149 L4.84039,15.2802537 L4.84039,15.2802537 Z" id="Fill-4" sketch:type="MSShapeGroup"></path>
            </g>
        </g>
    </g>
</svg>